{"title":"Newzoids.S01E04.HDTV.XviD-AFG","uid":11890033,"size":195664027,"categoryP":"other","categoryS":"other","magnet":"?xt=urn:btih:861688eff945c7b04cbf678a935fb52107145d8f&amp;dn=Newzoids.S01E04.HDTV.XviD-AFG&amp;tr=udp%3A%2F%2Ftracker.openbittorrent.com%3A80&amp;tr=udp%3A%2F%2Fopen.demonii.com%3A1337&amp;tr=udp%3A%2F%2Ftracker.coppersurfer.tk%3A6969&amp;tr=udp%3A%2F%2Fexodus.desync.com%3A6969","seeders":4,"leechers":0,"uploader":"toots2boots","files":2,"time":1430961564,"description":"Newzoids is a a topical puppet animation sketch show that pokes fun at different pop stars, politicians and television stars. The show depicts our most talked about celebrities in a way they have never been seen before.\n\nGeneral\nComplete name                            : G:Torrent uploadNewzoids.S01E04.HDTV.XviD-AFGNewzoids.S01E04.HDTV.XviD-AFG.avi\nFormat                                   : AVI\nFormat/Info                              : Audio Video Interleave\nFile size                                : 187 MiB\nDuration                                 : 22mn 16s\nOverall bit rate mode                    : Variable\nOverall bit rate                         : 1 172 Kbps\n\nVideo\nID                                       : 0\nFormat                                   : MPEG-4 Visual\nFormat profile                           : Advanced Simple@L5\nFormat settings, BVOP                    : 2\nFormat settings, QPel                    : No\nFormat settings, GMC                     : No warppoints\nFormat settings, Matrix                  : Default (H.263)\nCodec ID                                 : XVID\nCodec ID/Hint                            : XviD\nDuration                                 : 22mn 16s\nBit rate                                 : 1 031 Kbps\nWidth                                    : 640 pixels\nHeight                                   : 360 pixels\nDisplay aspect ratio                     : 16:9\nFrame rate                               : 25.000 fps\nColor space                              : YUV\nChroma subsampling                       : 4:2:0\nBit depth                                : 8 bits\nScan type                                : Progressive\nCompression mode                         : Lossy\nBits/(Pixel*Frame)                       : 0.179\nStream size                              : 164 MiB (88%)\nWriting library                          : XviD 64\n\nAudio\nID                                       : 1\nFormat                                   : MPEG Audio\nFormat version                           : Version 1\nFormat profile                           : Layer 3\nMode                                     : Joint stereo\nMode extension                           : MS Stereo\nCodec ID                                 : 55\nCodec ID/Hint                            : MP3\nDuration                                 : 22mn 16s\nBit rate mode                            : Variable\nBit rate                                 : 128 Kbps\nChannel(s)                               : 2 channels\nSampling rate                            : 48.0 KHz\nCompression mode                         : Lossy\nStream size                              : 20.4 MiB (11%)\nAlignment                                : Aligned on interleaves\nInterleave, duration                     : 24 ms (0.60 video frame)\nInterleave, preload duration             : 178 ms\nTitle                                    : Newzoids.S01E04.HDTV.XviD-AFG_360p.audio","torrent":{"xt":"urn:btih:861688eff945c7b04cbf678a935fb52107145d8f","amp;dn":"Newzoids.S01E04.HDTV.XviD-AFG","amp;tr":["udp%3A%2F%2Ftracker.openbittorrent.com%3A80","udp%3A%2F%2Fopen.demonii.com%3A1337","udp%3A%2F%2Ftracker.coppersurfer.tk%3A6969","udp%3A%2F%2Fexodus.desync.com%3A6969"],"infoHash":"861688eff945c7b04cbf678a935fb52107145d8f","infoHashBuffer":{"type":"Buffer","data":[134,22,136,239,249,69,199,176,76,191,103,138,147,95,181,33,7,20,93,143]},"announce":[],"urlList":[]}}